<svg xmlns="http://www.w3.org/2000/svg" width="32" height="32" viewBox="0 0 32 32" role="img">
  <title>Bluesky</title>
  <g fill="none" fill-rule="evenodd">
    <g fill="#fff" fill-rule="nonzero">
      <path d="M8.069,5.3 C11.279,7.718 14.733,12.62 16,15.251 L16,22.199 C16,22.051 15.943,22.218 15.821,22.578 C15.159,24.528 12.575,32.136 6.667,26.054 C3.556,22.851 5.0,19.649 10.659,18.682 C7.419,19.235 3.777,18.321 2.778,14.738 C2.49,13.707 2.0,7.358 2.0,6.501 C2.0,2.105 5.753,3.455 8.069,5.3 Z M23.931,5.3 C20.721,7.718 17.267,12.62 16,15.251 L16,22.199 C16,22.051 16.057,22.218 16.179,22.578 C16.841,24.528 19.425,32.136 25.333,26.054 C28.444,22.851 27.004,19.649 21.341,18.682 C24.581,19.235 28.223,18.321 29.222,14.738 C29.51,13.707 30.0,7.358 30.0,6.501 C30.0,2.105 26.247,3.455 23.931,5.3 Z"></path>
    </g>
  </g>
</svg>
